# xmcd CD database file
#
# Track frame offsets:
#	150
#	8093
#	24476
#	38608
#	53549
#	69562
#	88568
#	102288
#	118372
#	137582
#	159771
#	182327
#	203730
#	222579
#	247841
#	275288
#	300356
#
# Disc length: 4346 seconds
#
# Revision: 0
# Processed by: cddbd v1.5.2PL0 Copyright (c) Steve Scherf et al.
# Submitted via: CDex 1.70beta2
#
DISCID=d210f811
DTITLE=Eilen Jewell - Live at Shakori Hills Grassroots Festival of Music and Dance, Silk Hope, NC - 17 avril 2009
DYEAR=2009
DGENRE=Country
TTITLE0=Dusty Boxcar Wall
TTITLE1=Rain Roll In
TTITLE2=Heartache Boulevard
TTITLE3=Sea Of Tears
TTITLE4=Rich Man's World
TTITLE5=Fading Memory
TTITLE6=Angel On My Mind
TTITLE7=Too Hot To Sleep
TTITLE8=High Shelf Booze
TTITLE9=Mess Around
TTITLE10=Boundary County
TTITLE11=Shakin' All Over
TTITLE12=Fist City
TTITLE13=Gotta Get Right
TTITLE14=The Flood
TTITLE15=I'm Gonna Dress In Black
TTITLE16=If You Catch Me Stealing
EXTD=YEAR: 2009
EXTT0=
EXTT1=
EXTT2=
EXTT3=
EXTT4=
EXTT5=
EXTT6=
EXTT7=
EXTT8=
EXTT9=
EXTT10=
EXTT11=
EXTT12=
EXTT13=
EXTT14=
EXTT15=
EXTT16=
PLAYORDER=
